<svg width="32" height="32" viewBox="0 0 32 32" fill="none" xmlns="http://www.w3.org/2000/svg">
<rect width="32" height="32" rx="16" fill="#EBFBFE"/>
<path fill-rule="evenodd" clip-rule="evenodd" d="M11.5001 14C11.5001 11.5147 13.5148 9.5 16.0001 9.5C18.4854 9.5 20.5001 11.5147 20.5001 14C20.5001 16.4853 18.4854 18.5 16.0001 18.5C13.5148 18.5 11.5001 16.4853 11.5001 14Z" fill="#615033"/>
<path fill-rule="evenodd" clip-rule="evenodd" d="M7.75133 28.1053C7.82867 23.6156 11.4921 20 16.0001 20C20.5082 20 24.1717 23.6157 24.2488 28.1056C24.254 28.4034 24.0824 28.676 23.8117 28.8002C21.4328 29.8918 18.7866 30.5 16.0004 30.5C13.2139 30.5 10.5675 29.8917 8.18841 28.7999C7.91774 28.6757 7.7462 28.4031 7.75133 28.1053Z" fill="#615033"/>
<path d="M7.75133 28.1053L8.25126 28.1139V28.1139L7.75133 28.1053ZM24.2488 28.1056L24.7488 28.0971V28.0971L24.2488 28.1056ZM23.8117 28.8002L24.0203 29.2546V29.2546L23.8117 28.8002ZM8.18841 28.7999L7.97987 29.2543L7.97987 29.2543L8.18841 28.7999ZM16.0001 9.5V9C13.2387 9 11.0001 11.2386 11.0001 14H11.5001H12.0001C12.0001 11.7909 13.7909 10 16.0001 10V9.5ZM20.5001 14H21.0001C21.0001 11.2386 18.7615 9 16.0001 9V9.5V10C18.2092 10 20.0001 11.7909 20.0001 14H20.5001ZM16.0001 18.5V19C18.7615 19 21.0001 16.7614 21.0001 14H20.5001H20.0001C20.0001 16.2091 18.2092 18 16.0001 18V18.5ZM11.5001 14H11.0001C11.0001 16.7614 13.2387 19 16.0001 19V18.5V18C13.7909 18 12.0001 16.2091 12.0001 14H11.5001ZM16.0001 20V19.5C11.2188 19.5 7.33344 23.3347 7.25141 28.0967L7.75133 28.1053L8.25126 28.1139C8.32391 23.8964 11.7653 20.5 16.0001 20.5V20ZM24.2488 28.1056L24.7488 28.0971C24.6669 23.3349 20.7815 19.5 16.0001 19.5V20V20.5C20.2349 20.5 23.6764 23.8966 23.7489 28.1142L24.2488 28.1056ZM23.8117 28.8002L24.0203 29.2546C24.4714 29.0476 24.7573 28.5933 24.7488 28.0971L24.2488 28.1056L23.7489 28.1142C23.7506 28.2135 23.6934 28.3044 23.6032 28.3458L23.8117 28.8002ZM16.0004 30.5V31C18.86 31 21.5772 30.3757 24.0203 29.2546L23.8117 28.8002L23.6032 28.3458C21.2884 29.4079 18.7132 30 16.0004 30V30.5ZM8.18841 28.7999L7.97987 29.2543C10.4231 30.3755 13.1405 31 16.0004 31V30.5V30C13.2874 30 10.712 29.4078 8.39695 28.3455L8.18841 28.7999ZM7.75133 28.1053L7.25141 28.0967C7.24286 28.593 7.52875 29.0473 7.97987 29.2543L8.18841 28.7999L8.39695 28.3455C8.30673 28.3041 8.24955 28.2132 8.25126 28.1139L7.75133 28.1053Z" fill="#FFAF42"/>
<rect x="24.5" y="24.5" width="7" height="7" rx="3.5" fill="#4FD69C"/>
<rect x="24.5" y="24.5" width="7" height="7" rx="3.5" stroke="#FDFDFD"/>
</svg>
