<svg width="37" height="37" viewBox="0 0 37 37" fill="none" xmlns="http://www.w3.org/2000/svg">
<path d="M0 33.3H37V37H0V33.3ZM3.7 18.5H7.4V31.45H3.7V18.5ZM12.95 18.5H16.65V31.45H12.95V18.5ZM20.35 18.5H24.05V31.45H20.35V18.5ZM29.6 18.5H33.3V31.45H29.6V18.5ZM0 9.25L18.5 0L37 9.25V16.65H0V9.25ZM18.5 11.1C18.9907 11.1 19.4612 10.9051 19.8081 10.5581C20.1551 10.2112 20.35 9.74065 20.35 9.25C20.35 8.75935 20.1551 8.2888 19.8081 7.94185C19.4612 7.59491 18.9907 7.4 18.5 7.4C18.0093 7.4 17.5388 7.59491 17.1919 7.94185C16.8449 8.2888 16.65 8.75935 16.65 9.25C16.65 9.74065 16.8449 10.2112 17.1919 10.5581C17.5388 10.9051 18.0093 11.1 18.5 11.1Z" fill="#1D1E20"/>
</svg>
