<svg width="24" height="23" viewBox="0 0 24 23" fill="none" xmlns="http://www.w3.org/2000/svg">
<path d="M18.1768 17.7705C19.3619 17.7729 20.3361 18.6738 20.4541 19.8281L20.4658 20.0625V20.0635C20.4646 21.3287 19.438 22.3536 18.1729 22.3525C16.9077 22.3513 15.8827 21.3247 15.8838 20.0596C15.885 18.8732 16.7878 17.8982 17.9434 17.7822L18.1768 17.7705ZM8.54883 17.7734C9.77609 17.7716 10.7871 18.7373 10.8408 19.9639C10.8962 21.2279 9.91638 22.2971 8.65234 22.3525H8.61523C7.40162 22.3314 6.41522 21.3672 6.36621 20.1543C6.31538 18.8947 7.29132 17.8317 8.54883 17.7734ZM1.07617 0.5H3.26465C4.22283 0.50036 5.0349 1.20639 5.16797 2.15527V2.16016L5.4375 3.95996L5.50098 4.38672H22.9248C22.9608 4.3868 22.9968 4.38966 23.0322 4.39648H23.0332C23.3456 4.45713 23.5496 4.75981 23.4893 5.07227L21.7383 13.8008C21.5032 14.9462 20.4945 15.7679 19.3252 15.7666H8.12695C6.98678 15.763 6.00716 14.9838 5.7334 13.8965L5.68848 13.6748L4.03027 2.31738C3.97791 1.93656 3.65276 1.65242 3.26758 1.65332H1.07617C0.757915 1.65312 0.5 1.39448 0.5 1.07617C0.500205 0.758042 0.758041 0.500205 1.07617 0.5Z" fill="#615033" stroke="#FFAF42"/>
</svg>
