<svg width="25" height="23" viewBox="0 0 25 23" fill="none" xmlns="http://www.w3.org/2000/svg">
<path d="M12.2344 0.5C12.2879 0.5 12.3408 0.509644 12.3887 0.52832C12.4365 0.547027 12.4783 0.573894 12.5117 0.605469L12.5127 0.607422L23.8721 11.2686H23.873C23.9226 11.3157 23.9523 11.372 23.9639 11.4277V11.4287C23.9752 11.4842 23.9697 11.5423 23.9453 11.5967L23.9434 11.6006C23.9193 11.6555 23.8762 11.7079 23.8145 11.7471C23.7522 11.7864 23.6754 11.8092 23.5947 11.8096H20.4746V20.5127C20.4746 21.022 20.2598 21.5172 19.8652 21.8877C19.4693 22.2593 18.9252 22.4736 18.3525 22.4736H14.8564C14.7477 22.4735 14.649 22.4328 14.5811 22.3691C14.5141 22.3063 14.4825 22.2276 14.4824 22.1533V17.2314C14.4824 16.8708 14.3299 16.5319 14.0693 16.2871C13.8096 16.0433 13.4629 15.9111 13.1084 15.9111H11.3604C11.006 15.9112 10.66 16.0434 10.4004 16.2871C10.1397 16.5319 9.98633 16.8708 9.98633 17.2314V22.1533C9.98629 22.2276 9.95563 22.3063 9.88867 22.3691C9.82061 22.4329 9.72128 22.4736 9.6123 22.4736H6.11621C5.54367 22.4735 5.00029 22.2592 4.60449 21.8877C4.20992 21.5172 3.99418 21.022 3.99414 20.5127V11.8096H0.875C0.794374 11.8092 0.717486 11.7864 0.655273 11.7471C0.593482 11.7079 0.550451 11.6555 0.526367 11.6006L0.524414 11.5967L0.501953 11.5127C0.49883 11.4846 0.50022 11.4564 0.505859 11.4287C0.511593 11.4008 0.522053 11.3726 0.537109 11.3457L0.59668 11.2686L11.9561 0.607422L11.958 0.605469C11.9914 0.573925 12.0332 0.547014 12.0811 0.52832C12.1288 0.509722 12.181 0.500052 12.2344 0.5Z" fill="#615033" stroke="#FFAF42"/>
</svg>
