<svg width="44" height="44" viewBox="0 0 44 44" fill="none" xmlns="http://www.w3.org/2000/svg">
<path d="M36.6849 21.2862H36.4312C35.3896 16.6304 31.232 13.134 26.2682 13.134H23.0979V11.9746C24.674 11.413 25.8153 9.91845 25.8153 8.15214C25.8153 5.90577 23.9856 4.07606 21.7392 4.07606C19.4928 4.07606 17.6631 5.90577 17.6631 8.15214C17.6631 9.91845 18.8044 11.413 20.3805 11.9746V13.134H17.2102C12.2465 13.134 8.08885 16.6304 7.04719 21.2862H6.79356C5.299 21.2862 4.07617 22.509 4.07617 24.0036V26.721C4.07617 28.2155 5.299 29.4384 6.79356 29.4384H7.29175C8.36059 32.7717 11.0599 35.3623 14.4475 36.3043C14.1939 36.8387 14.0399 37.4184 14.0399 38.0434C14.0399 38.7953 14.6468 39.4021 15.3986 39.4021H28.0798C28.8316 39.4021 29.4385 38.7953 29.4385 38.0434C29.4385 37.4184 29.2845 36.8297 29.0309 36.3043C32.4186 35.3713 35.1178 32.7717 36.1867 29.4384H36.6849C38.1794 29.4384 39.4023 28.2155 39.4023 26.721V24.0036C39.4023 22.509 38.1794 21.2862 36.6849 21.2862ZM21.7392 6.79345C22.491 6.79345 23.0979 7.40033 23.0979 8.15214C23.0979 8.90395 22.491 9.51084 21.7392 9.51084C20.9874 9.51084 20.3805 8.90395 20.3805 8.15214C20.3805 7.40033 20.9874 6.79345 21.7392 6.79345ZM26.2682 33.9674H17.2102C12.962 33.9674 9.51095 30.5163 9.51095 26.2681V23.5507C9.51095 19.3025 12.962 15.8514 17.2102 15.8514H26.2682C30.5164 15.8514 33.9675 19.3025 33.9675 23.5507V26.2681C33.9675 30.5163 30.5164 33.9674 26.2682 33.9674Z" fill="#F5CB58"/>
<path d="M16.7573 19.4746C15.2628 19.4746 14.0399 20.6974 14.0399 22.192V24.9094C14.0399 26.404 15.2628 27.6268 16.7573 27.6268C18.2519 27.6268 19.4747 26.404 19.4747 24.9094V22.192C19.4747 20.6974 18.2519 19.4746 16.7573 19.4746Z" fill="#F5CB58"/>
<path d="M26.7211 19.4746C25.2265 19.4746 24.0037 20.6974 24.0037 22.192V24.9094C24.0037 26.404 25.2265 27.6268 26.7211 27.6268C28.2157 27.6268 29.4385 26.404 29.4385 24.9094V22.192C29.4385 20.6974 28.2157 19.4746 26.7211 19.4746Z" fill="#F5CB58"/>
<path d="M12.2555 6.72098L14.9729 7.62678C15.1178 7.67207 15.2628 7.69924 15.3986 7.69924C15.9693 7.69924 16.4946 7.33693 16.6849 6.76627C16.9204 6.05069 16.5399 5.28077 15.8244 5.04526L13.107 4.13946C12.4004 3.90395 11.6305 4.28439 11.386 4.99997C11.1414 5.71555 11.5309 6.48548 12.2465 6.72098H12.2555Z" fill="#F5CB58"/>
<path d="M12.6812 12.2282C12.8262 12.2282 12.9711 12.2101 13.107 12.1558L15.8244 11.25C16.5399 11.0145 16.9204 10.2445 16.6849 9.52895C16.4494 8.81337 15.6794 8.43294 14.9639 8.66845L12.2465 9.57424C11.5309 9.80975 11.1504 10.5797 11.386 11.2953C11.5762 11.8659 12.1015 12.2282 12.6722 12.2282H12.6812Z" fill="#F5CB58"/>
<path d="M28.0798 7.69924C28.2247 7.69924 28.3696 7.68113 28.5055 7.62678L31.2229 6.72098C31.9385 6.48548 32.3189 5.71555 32.0834 4.99997C31.8479 4.28439 31.078 3.90395 30.3624 4.13946L27.645 5.04526C26.9294 5.28077 26.549 6.05069 26.7845 6.76627C26.9747 7.33693 27.5001 7.69924 28.0707 7.69924H28.0798Z" fill="#F5CB58"/>
<path d="M27.6541 11.25L30.3715 12.1558C30.5164 12.2011 30.6613 12.2282 30.7972 12.2282C31.3678 12.2282 31.8932 11.8659 32.0834 11.2953C32.3189 10.5797 31.9385 9.80975 31.2229 9.57424L28.5055 8.66845C27.799 8.43294 27.02 8.81337 26.7845 9.52895C26.549 10.2445 26.9294 11.0145 27.645 11.25H27.6541Z" fill="#F5CB58"/>
</svg>
