<svg width="28" height="27" viewBox="0 0 28 27" fill="none" xmlns="http://www.w3.org/2000/svg">
<path d="M19.6042 3.66626C21.1327 3.66626 22.5981 4.19908 23.7195 5.14868L23.9392 5.34497C25.0793 6.42067 25.7126 7.86944 25.7126 9.37231C25.7126 10.8759 25.0783 12.3248 23.9373 13.4006L14.2625 22.4817L14.2615 22.4827C14.2281 22.5143 14.1863 22.5411 14.1384 22.5598C14.0905 22.5786 14.0378 22.5881 13.9841 22.5881C13.9305 22.5881 13.8778 22.5786 13.8298 22.5598C13.7821 22.5411 13.7411 22.5141 13.7078 22.4827L13.7058 22.4817L4.03003 13.4006H4.03101C2.89001 12.3248 2.25566 10.8758 2.25562 9.37231C2.25562 7.86928 2.88877 6.41973 4.02905 5.34399L4.03003 5.34497C5.17596 4.27342 6.73368 3.66632 8.36401 3.66626C9.89245 3.66626 11.3579 4.19915 12.4792 5.14868L12.699 5.34497L13.6423 6.22974L13.9841 6.55103L14.3269 6.22974L15.2693 5.34497C16.4153 4.27337 17.9738 3.66626 19.6042 3.66626Z" fill="#615033" stroke="#FFAF42"/>
</svg>
